<svg xmlns="http://www.w3.org/2000/svg" viewBox="0 0 512 512"><defs><style>.cls-1{fill:#ff1a1a;}</style></defs><g id="Layer_2" data-name="Layer 2"><g id="Layer_1-2" data-name="Layer 1"><path class="cls-1" d="M240,0h32a28.69,28.69,0,0,0,3.85.82C315.71,3.8,353,15.24,387,36.17c66.08,40.69,106.78,99.21,121,175.72,1.73,9.29,2.64,18.73,3.93,28.11v32c-.41,3.28-.87,6.56-1.22,9.85-5.48,50.63-23.83,96-56.15,135.44-40.19,49-91.6,79.38-154,90.75-9.45,1.72-19.05,2.66-28.58,4H240c-6.25-.77-12.51-1.44-18.74-2.32C174,503,131.61,485,94.74,454.65,45.8,414.41,15.32,363.07,4,300.61,2.26,291.14,1.31,281.54,0,272V240c.4-3.28.85-6.55,1.21-9.84C7.13,175.93,27.63,128,63.81,87.1c39.78-44.95,89.32-72.91,148.58-83.24C221.54,2.27,230.8,1.27,240,0ZM107,407.42c2.18-.47,3.76-.76,5.3-1.17,24-6.25,47.94-12.6,72-18.68a11.76,11.76,0,0,1,7.51.77c29.68,14.78,60.81,19.65,93.62,14.79,84.95-12.58,144.06-97.58,126.25-181.76-17.32-81.85-94-134.26-176.2-120.48C138.88,117.07,82.22,220.08,120,310.81c9.67,12.87,7.23,26.14,2.63,40.28C116.69,369.37,112.28,388.16,107,407.42Z"/><path class="cls-1" d="M143.82,371.1c3.28-12.11,5.89-23.76,9.68-35,2.64-7.86,1.77-13.95-2.48-21.29-44.88-77.64,3.91-176.84,92.63-189,70.6-9.66,134.13,38.59,144.08,109.41,9.32,66.3-37.89,130.86-103.57,141.89-31.49,5.29-60.88-.17-88.51-16a11.62,11.62,0,0,0-7.77-1.11c-13.59,3.24-27.07,6.89-40.6,10.4C146.38,370.59,145.45,370.75,143.82,371.1Zm157.83-45.71a50.59,50.59,0,0,0,7-.49c18-3.74,30.9-14,30.29-33-.06-1.84-1.18-4.57-2.62-5.3-10.5-5.38-21.18-10.42-31.87-15.41-3.52-1.65-6.23-.45-8.56,2.76-3.32,4.57-7.12,8.79-10.6,13.25-2.39,3.08-5.09,3.72-8.75,2.26-22.47-9-39.58-24.09-52-44.75-1.81-3-1.72-5.42.52-8.14a101.58,101.58,0,0,0,8.9-12c1.2-2,1.92-5.29,1.15-7.34-3.93-10.42-8.32-20.66-12.79-30.85-.81-1.83-2.57-4.26-4.21-4.53-7-1.19-14.35-2.48-20.3,3.16-11.94,11.31-16.33,25.23-13.32,41.31,2.69,14.32,10.7,26,19.28,37.35,16.19,21.37,35,39.78,59.82,50.87C275.73,320,288,325.4,301.65,325.39Z"/></g></g></svg>