<svg xmlns="http://www.w3.org/2000/svg" viewBox="0 0 337.12 336.26"><defs><style>.cls-1{fill:#ff1a1a;}</style></defs><g id="Layer_2" data-name="Layer 2"><g id="Layer_1-2" data-name="Layer 1"><path class="cls-1" d="M201.7,336.26V216.05h32.61c2.5-16.27,4.83-31.51,7.33-47.79h-49.4c0-13.28-.91-25.72.27-38,1.05-10.94,8.83-17.52,20.28-18.27s23.1-.16,35.34-.16V69.43c-21.52-2.79-43.06-6.45-64.4.91-25.57,8.82-37.3,28.34-39.06,54.21-1,14-.17,28.2-.17,43.39H106.8v47.52h36.63V335.73C86.13,331.25,7.66,278.58.46,180.49-6.34,87.88,63.13,7.39,157.78.46,249.62-6.28,328,62.42,336.3,152.7,346.12,259.67,265.14,325.63,201.7,336.26Z"/></g></g></svg>