<svg xmlns="http://www.w3.org/2000/svg" viewBox="0 0 374.27 374.27"><defs><style>.cls-1{fill:#ff1a1a;}</style></defs><g id="Layer_2" data-name="Layer 2"><g id="Layer_1-2" data-name="Layer 1"><path class="cls-1" d="M187.08,374.27C83.7,374.24-.12,290.24,0,186.8.12,83.62,84.12-.12,187.37,0s187,84,186.9,187.27S290.32,374.3,187.08,374.27ZM71.86,187.12h-.32c0,14.09-.09,28.19,0,42.28a115.65,115.65,0,0,0,1.08,16c3.51,23,14.67,40.54,36.71,49.92a82.21,82.21,0,0,0,32.1,6.2q43.77.18,87.55,0a117.94,117.94,0,0,0,19-1.44c23.43-3.95,40.83-15.9,49.56-38.73a82.67,82.67,0,0,0,5.16-29.67c0-28.81.06-57.62,0-86.43a112,112,0,0,0-1.09-16.38C297.93,104.91,286,87.1,262.81,78.08a81.47,81.47,0,0,0-29.28-5.33q-46.38-.21-92.78,0a78.89,78.89,0,0,0-33.39,7.08c-23.4,11-33.77,30.72-35.29,55.3C71,152.4,71.86,169.79,71.86,187.12Z"/><path class="cls-1" d="M187.18,94.37c15.22,0,30.44-.15,45.66.08A73.78,73.78,0,0,1,248,96.21C266.5,100.4,278.47,114,280.67,133a111.88,111.88,0,0,1,.75,12.67c.06,28.45.25,56.89-.12,85.33a69,69,0,0,1-3.39,20.88C272.16,268.91,259.2,278,241.68,279c-21.77,1.22-43.62,1.1-65.44,1.17-14.46,0-29,0-43.37-1.08-22-1.6-36.83-16.51-39.33-38.55a101.42,101.42,0,0,1-.7-11.55c-.06-28.82-.24-57.64.12-86.45a66.76,66.76,0,0,1,3.4-20.12c5.78-17.09,18.74-25.9,36.24-27.22,15.14-1.15,30.4-.88,45.6-1.21,3-.07,6,0,9,0Zm60.79,93A60.84,60.84,0,1,0,187.28,248,60.68,60.68,0,0,0,248,187.38Zm.21-72.89a12.11,12.11,0,1,0,12.29,11.9A12.12,12.12,0,0,0,248.18,114.49Z"/><path class="cls-1" d="M226.37,187.16a39.24,39.24,0,1,1-39.21-39.26A39.15,39.15,0,0,1,226.37,187.16Z"/></g></g></svg>